<svg width="32" height="32" viewBox="0 0 32 32" fill="none" xmlns="http://www.w3.org/2000/svg">
<path d="M7.94264 15.75C7.94264 13.93 8.1993 12.25 8.71264 10.71C9.22597 9.14667 9.9843 7.805 10.9876 6.685C11.991 5.54167 13.2276 4.655 14.6976 4.025C16.1676 3.395 17.8593 3.08 19.7726 3.08C21.686 3.08 23.3776 3.395 24.8476 4.025C26.3176 4.655 27.5426 5.54167 28.5226 6.685C29.526 7.805 30.2843 9.14667 30.7976 10.71C31.311 12.25 31.5676 13.93 31.5676 15.75C31.5676 17.57 31.311 19.2617 30.7976 20.825C30.2843 22.365 29.526 23.7067 28.5226 24.85C27.5426 25.97 26.3176 26.845 24.8476 27.475C23.3776 28.105 21.686 28.42 19.7726 28.42C17.8593 28.42 16.1676 28.105 14.6976 27.475C13.2276 26.845 11.991 25.97 10.9876 24.85C9.9843 23.7067 9.22597 22.365 8.71264 20.825C8.1993 19.2617 7.94264 17.57 7.94264 15.75ZM13.8926 15.75C13.8926 17.2433 14.0093 18.6317 14.2426 19.915C14.476 21.175 14.8376 22.2717 15.3276 23.205C15.841 24.115 16.4826 24.8383 17.2526 25.375C18.046 25.8883 18.991 26.145 20.0876 26.145C21.091 26.145 21.9426 25.8883 22.6426 25.375C23.3426 24.8383 23.9143 24.115 24.3576 23.205C24.801 22.2717 25.116 21.175 25.3026 19.915C25.5126 18.6317 25.6176 17.2433 25.6176 15.75C25.6176 14.2567 25.501 12.88 25.2676 11.62C25.0576 10.3367 24.7076 9.24 24.2176 8.33C23.751 7.39666 23.121 6.67333 22.3276 6.16C21.5576 5.62333 20.6126 5.355 19.4926 5.355C18.4193 5.355 17.521 5.62333 16.7976 6.16C16.0743 6.67333 15.491 7.39666 15.0476 8.33C14.6276 9.24 14.3243 10.3367 14.1376 11.62C13.9743 12.88 13.8926 14.2567 13.8926 15.75Z" fill="#4169E1"/>
<path d="M1.365 15.75C1.365 13.93 1.62167 12.25 2.135 10.71C2.64833 9.14667 3.40667 7.805 4.41 6.685C5.41333 5.54167 6.65 4.655 8.12 4.025C9.59 3.395 11.2817 3.08 13.195 3.08C15.1083 3.08 16.8 3.395 18.27 4.025C19.74 4.655 20.965 5.54167 21.945 6.685C22.9483 7.805 23.7067 9.14667 24.22 10.71C24.7333 12.25 24.99 13.93 24.99 15.75C24.99 17.57 24.7333 19.2617 24.22 20.825C23.7067 22.365 22.9483 23.7067 21.945 24.85C20.965 25.97 19.74 26.845 18.27 27.475C16.8 28.105 15.1083 28.42 13.195 28.42C11.2817 28.42 9.59 28.105 8.12 27.475C6.65 26.845 5.41333 25.97 4.41 24.85C3.40667 23.7067 2.64833 22.365 2.135 20.825C1.62167 19.2617 1.365 17.57 1.365 15.75ZM7.315 15.75C7.315 17.2433 7.43167 18.6317 7.665 19.915C7.89833 21.175 8.26 22.2717 8.75 23.205C9.26333 24.115 9.905 24.8383 10.675 25.375C11.4683 25.8883 12.4133 26.145 13.51 26.145C14.5133 26.145 15.365 25.8883 16.065 25.375C16.765 24.8383 17.3367 24.115 17.78 23.205C18.2233 22.2717 18.5383 21.175 18.725 19.915C18.935 18.6317 19.04 17.2433 19.04 15.75C19.04 14.2567 18.9233 12.88 18.69 11.62C18.48 10.3367 18.13 9.24 17.64 8.33C17.1733 7.39666 16.5433 6.67333 15.75 6.16C14.98 5.62333 14.035 5.355 12.915 5.355C11.8417 5.355 10.9433 5.62333 10.22 6.16C9.49667 6.67333 8.91333 7.39666 8.47 8.33C8.05 9.24 7.74667 10.3367 7.56 11.62C7.39667 12.88 7.315 14.2567 7.315 15.75Z" fill="white"/>
</svg>
