<svg width="180" height="172" viewBox="0 0 180 172" fill="none" xmlns="http://www.w3.org/2000/svg">
<path d="M24.97 88.5C24.97 76.54 26.6567 65.5 30.03 55.38C33.4033 45.1067 38.3867 36.29 44.98 28.93C51.5733 21.4167 59.7 15.59 69.36 11.45C79.02 7.30999 90.1367 5.24 102.71 5.24C115.283 5.24 126.4 7.30999 136.06 11.45C145.72 15.59 153.77 21.4167 160.21 28.93C166.803 36.29 171.787 45.1067 175.16 55.38C178.533 65.5 180.22 76.54 180.22 88.5C180.22 100.46 178.533 111.577 175.16 121.85C171.787 131.97 166.803 140.787 160.21 148.3C153.77 155.66 145.72 161.41 136.06 165.55C126.4 169.69 115.283 171.76 102.71 171.76C90.1367 171.76 79.02 169.69 69.36 165.55C59.7 161.41 51.5733 155.66 44.98 148.3C38.3867 140.787 33.4033 131.97 30.03 121.85C26.6567 111.577 24.97 100.46 24.97 88.5ZM64.07 88.5C64.07 98.3133 64.8367 107.437 66.37 115.87C67.9033 124.15 70.28 131.357 73.5 137.49C76.8733 143.47 81.09 148.223 86.15 151.75C91.3633 155.123 97.5733 156.81 104.78 156.81C111.373 156.81 116.97 155.123 121.57 151.75C126.17 148.223 129.927 143.47 132.84 137.49C135.753 131.357 137.823 124.15 139.05 115.87C140.43 107.437 141.12 98.3133 141.12 88.5C141.12 78.6867 140.353 69.64 138.82 61.36C137.44 52.9267 135.14 45.72 131.92 39.74C128.853 33.6067 124.713 28.8533 119.5 25.48C114.44 21.9533 108.23 20.19 100.87 20.19C93.8167 20.19 87.9133 21.9533 83.16 25.48C78.4067 28.8533 74.5733 33.6067 71.66 39.74C68.9 45.72 66.9067 52.9267 65.68 61.36C64.6067 69.64 64.07 78.6867 64.07 88.5Z" fill="#4169E1"/>
<path d="M-0.0299998 88.5C-0.0299998 76.54 1.65667 65.5 5.03 55.38C8.40333 45.1067 13.3867 36.29 19.98 28.93C26.5733 21.4167 34.7 15.59 44.36 11.45C54.02 7.30999 65.1367 5.24 77.71 5.24C90.2833 5.24 101.4 7.30999 111.06 11.45C120.72 15.59 128.77 21.4167 135.21 28.93C141.803 36.29 146.787 45.1067 150.16 55.38C153.533 65.5 155.22 76.54 155.22 88.5C155.22 100.46 153.533 111.577 150.16 121.85C146.787 131.97 141.803 140.787 135.21 148.3C128.77 155.66 120.72 161.41 111.06 165.55C101.4 169.69 90.2833 171.76 77.71 171.76C65.1367 171.76 54.02 169.69 44.36 165.55C34.7 161.41 26.5733 155.66 19.98 148.3C13.3867 140.787 8.40333 131.97 5.03 121.85C1.65667 111.577 -0.0299998 100.46 -0.0299998 88.5ZM39.07 88.5C39.07 98.3133 39.8367 107.437 41.37 115.87C42.9033 124.15 45.28 131.357 48.5 137.49C51.8733 143.47 56.09 148.223 61.15 151.75C66.3633 155.123 72.5733 156.81 79.78 156.81C86.3733 156.81 91.97 155.123 96.57 151.75C101.17 148.223 104.927 143.47 107.84 137.49C110.753 131.357 112.823 124.15 114.05 115.87C115.43 107.437 116.12 98.3133 116.12 88.5C116.12 78.6867 115.353 69.64 113.82 61.36C112.44 52.9267 110.14 45.72 106.92 39.74C103.853 33.6067 99.7133 28.8533 94.5 25.48C89.44 21.9533 83.23 20.19 75.87 20.19C68.8167 20.19 62.9133 21.9533 58.16 25.48C53.4067 28.8533 49.5733 33.6067 46.66 39.74C43.9 45.72 41.9067 52.9267 40.68 61.36C39.6067 69.64 39.07 78.6867 39.07 88.5Z" fill="white"/>
</svg>
